name D:\school\WTK\thesis\model\3dpredictsim\Results\MidTarsalJoint\Fal_s1_bCst_PF_Natali2010_ls150_MT_k50_d020_MTP_T5_ig24.mot
datacolumns 128
datarows 4
range 1.16797141 1.20301055
endheader
time	pelvis_tilt	pelvis_list	pelvis_rotation	pelvis_tx	pelvis_ty	pelvis_tz	hip_flexion_l	hip_adduction_l	hip_rotation_l	hip_flexion_r	hip_adduction_r	hip_rotation_r	knee_angle_l	knee_angle_r	ankle_angle_l	ankle_angle_r	subtalar_angle_l	subtalar_angle_r	mtj_angle_l	mtj_angle_r	mtp_angle_l	mtp_angle_r	lumbar_extension	lumbar_bending	lumbar_rotation	arm_flex_l	arm_add_l	arm_rot_l	arm_flex_r	arm_add_r	arm_rot_r	elbow_flex_l	elbow_flex_r	pro_sup_l	pro_sup_r	glut_med1_l/activation	glut_med2_l/activation	glut_med3_l/activation	glut_min1_l/activation	glut_min2_l/activation	glut_min3_l/activation	semimem_l/activation	semiten_l/activation	bifemlh_l/activation	bifemsh_l/activation	sar_l/activation	add_long_l/activation	add_brev_l/activation	add_mag1_l/activation	add_mag2_l/activation	add_mag3_l/activation	tfl_l/activation	pect_l/activation	grac_l/activation	glut_max1_l/activation	glut_max2_l/activation	glut_max3_l/activation	iliacus_l/activation	psoas_l/activation	quad_fem_l/activation	gem_l/activation	peri_l/activation	rect_fem_l/activation	vas_med_l/activation	vas_int_l/activation	vas_lat_l/activation	med_gas_l/activation	lat_gas_l/activation	soleus_l/activation	tib_post_l/activation	flex_dig_l/activation	flex_hal_l/activation	tib_ant_l/activation	per_brev_l/activation	per_long_l/activation	per_tert_l/activation	ext_dig_l/activation	ext_hal_l/activation	ercspn_l/activation	intobl_l/activation	extobl_l/activation	glut_med1_r/activation	glut_med2_r/activation	glut_med3_r/activation	glut_min1_r/activation	glut_min2_r/activation	glut_min3_r/activation	semimem_r/activation	semiten_r/activation	bifemlh_r/activation	bifemsh_r/activation	sar_r/activation	add_long_r/activation	add_brev_r/activation	add_mag1_r/activation	add_mag2_r/activation	add_mag3_r/activation	tfl_r/activation	pect_r/activation	grac_r/activation	glut_max1_r/activation	glut_max2_r/activation	glut_max3_r/activation	iliacus_r/activation	psoas_r/activation	quad_fem_r/activation	gem_r/activation	peri_r/activation	rect_fem_r/activation	vas_med_r/activation	vas_int_r/activation	vas_lat_r/activation	med_gas_r/activation	lat_gas_r/activation	soleus_r/activation	tib_post_r/activation	flex_dig_r/activation	flex_hal_r/activation	tib_ant_r/activation	per_brev_r/activation	per_long_r/activation	per_tert_r/activation	ext_dig_r/activation	ext_hal_r/activation	ercspn_r/activation	intobl_r/activation	extobl_r/activation	
          1.16797141	         -2.92513049	         -2.88685947	          6.93149293	          1.45996426	          0.91532527	         -0.00109110	        -15.53981322	         -2.88587409	          5.88839157	         28.64817817	          4.36907501	         -0.49103176	        -13.96033721	        -11.75150753	         -7.30716615	          3.75214416	         14.42941998	         -6.56770032	         12.04278596	         -0.19040925	         -0.15803729	         -0.81044987	         -1.26118634	          1.04027603	         -2.46044484	          4.55616123	        -13.46543927	         11.37421029	        -12.59135637	        -13.63401388	          2.97966977	         43.15564769	         20.54597850	         86.51662706	         86.51662706	          0.28526265	          0.08180416	          0.05426223	          0.21921230	          0.15711862	          0.08529786	          0.05000135	          0.05000040	          0.05000038	          0.05000016	          0.08516332	          0.08046693	          0.05973295	          0.05972459	          0.05197112	          0.05917052	          0.24805488	          0.06915407	          0.05001043	          0.05008856	          0.05005227	          0.05012450	          0.33001313	          0.51743395	          0.05062360	          0.05000088	          0.05000012	          0.19892708	          0.09885981	          0.09624068	          0.10692475	          0.22277994	          0.30797198	          0.34375428	          0.20769915	          0.16326171	          0.22802263	          0.05000002	          0.10508420	          0.20964140	          0.05000010	          0.05000002	          0.05000012	          0.05000007	          0.05973311	          0.05973310	          0.23159205	          0.05000006	          0.19820545	          0.05000052	          0.05000016	          0.17088042	          0.15963722	          0.05000041	          0.07145742	          0.05000009	          0.05000043	          0.09003404	          0.20234658	          0.19375738	          0.15440634	          0.11981819	          0.05000039	          0.05973898	          0.11395645	          0.05000021	          0.05001638	          0.10942650	          0.05093019	          0.05000072	          0.40230478	          0.14924929	          0.16120190	          0.05973321	          0.15348656	          0.15321869	          0.13081111	          0.05595895	          0.05874198	          0.05604961	          0.05973298	          0.05000119	          0.05000108	          0.44098872	          0.27339734	          0.16228614	          0.26449607	          0.51700148	          0.16727850	          0.05000002	          0.11420353	          0.09040690	
          1.17965112	         -2.91825118	         -2.96575019	          7.15057815	          1.47796223	          0.91426297	         -0.00087836	        -15.34015853	         -3.18387193	          5.60175431	         27.80184653	          4.64609970	         -0.18941935	        -15.97056638	        -12.17385311	         -7.90214714	          3.08495211	         15.09958367	         -6.95576001	         10.47225586	         -0.33135995	          1.10831126	         -0.75817903	         -1.04518169	          1.24290943	         -2.52230362	          4.19736232	        -13.47390298	         11.58703577	        -13.54087827	        -13.62075283	          3.10487656	         44.14858480	         20.32500749	         86.51662706	         86.51662706	          0.29401230	          0.06847478	          0.05000021	          0.35278756	          0.13151737	          0.07139922	          0.05000131	          0.05000013	          0.05000011	          0.05000024	          0.07149099	          0.06735568	          0.05000020	          0.05000017	          0.05000040	          0.05000024	          0.24052850	          0.05788750	          0.05000044	          0.05000089	          0.05000075	          0.05000034	          0.28897945	          0.48987575	          0.05000012	          0.05000102	          0.05000469	          0.17668220	          0.08275179	          0.08055954	          0.12230487	          0.18647949	          0.25779010	          0.28774191	          0.17385605	          0.13665948	          0.19086803	          0.05000007	          0.15572685	          0.21348733	          0.05000015	          0.05970851	          0.05000029	          0.06213811	          0.05000002	          0.05000004	          0.30077821	          0.26287004	          0.31805191	          0.13462794	          0.20431923	          0.14507985	          0.13362546	          0.08300354	          0.05981403	          0.08433401	          0.05000260	          0.07536365	          0.16937563	          0.16218608	          0.12924712	          0.13562361	          0.05000036	          0.05000522	          0.09538852	          0.19723121	          0.15069882	          0.11641263	          0.05000005	          0.05000007	          0.33675206	          0.12493028	          0.13493544	          0.05000013	          0.12847707	          0.12825287	          0.10949642	          0.05000003	          0.05000006	          0.05000000	          0.05000001	          0.05000007	          0.05000009	          0.55862987	          0.32675058	          0.17992379	          0.57964200	          0.55310686	          0.28787589	          0.06797143	          0.10184753	          0.07567572	
          1.19133084	         -2.90956268	         -3.02856945	          7.32688045	          1.49596182	          0.91342465	         -0.00063376	        -15.02919275	         -3.45842115	          5.33502080	         26.98274620	          4.91753750	          0.09798361	        -18.09623837	        -12.65783982	         -8.57584441	          2.45987702	         15.66621847	         -7.35513537	          8.51755525	         -0.42130957	          2.68233219	         -0.70766109	         -0.83906490	          1.43780268	         -2.57449163	          3.80921959	        -13.48625572	         11.76785737	        -14.42009331	        -13.60196220	          3.25932708	         45.03953027	         20.08178299	         86.51662706	         86.51662706	          0.27536626	          0.05731733	          0.05000006	          0.29530352	          0.11008760	          0.05976525	          0.05000126	          0.05000018	          0.05000017	          0.05000012	          0.05984225	          0.12662114	          0.05356715	          0.05000871	          0.05000167	          0.05000118	          0.20133627	          0.06820320	          0.05000072	          0.05000137	          0.05000096	          0.05000055	          0.24189230	          0.44707816	          0.05000014	          0.05000041	          0.05000008	          0.14789308	          0.11249517	          0.10481333	          0.10237639	          0.15609395	          0.21578500	          0.24085635	          0.14552744	          0.11439186	          0.15976748	          0.09992365	          0.16553564	          0.17870125	          0.05002574	          0.14521643	          0.05000057	          0.08233856	          0.05000001	          0.05000004	          0.38883588	          0.35813732	          0.42565763	          0.19095908	          0.17102927	          0.28340706	          0.11185217	          0.07827485	          0.06785582	          0.07059241	          0.05000026	          0.06308380	          0.14180988	          0.18609614	          0.19201393	          0.16043927	          0.05000025	          0.05569531	          0.08485366	          0.24951542	          0.19158544	          0.15823992	          0.05000014	          0.05000011	          0.28188069	          0.10457387	          0.21711834	          0.05000007	          0.21356469	          0.21564968	          0.18071019	          0.05000004	          0.05000011	          0.05000002	          0.05000014	          0.05003082	          0.05000080	          0.64704599	          0.27350885	          0.15060646	          0.48519346	          0.55276090	          0.35450113	          0.08807231	          0.08525220	          0.06334489	
          1.20301055	         -2.89954289	         -3.07874951	          7.46318280	          1.51382174	          0.91292278	         -0.00036975	        -14.58395432	         -3.70864235	          5.08265233	         26.21601481	          5.19084017	          0.38027911	        -20.34768600	        -13.22310673	         -9.27860878	          1.85478835	         16.12998937	         -7.76253180	          6.20593763	         -0.44544843	          4.26165998	         -0.66034572	         -0.64826778	          1.62893237	         -2.61600756	          3.42323876	        -13.49436136	         11.93641756	        -15.20137174	        -13.57809565	          3.43646177	         45.78834146	         19.80229865	         86.51662706	         86.51662706	          0.23049736	          0.05000011	          0.05000006	          0.24718600	          0.09214968	          0.05002700	          0.05000097	          0.05000019	          0.05000022	          0.05000008	          0.05009158	          0.11253688	          0.14733248	          0.05000063	          0.05627370	          0.10463362	          0.16853039	          0.05709067	          0.05000036	          0.05000095	          0.05000083	          0.05000042	          0.20247765	          0.39932911	          0.05000009	          0.05000041	          0.05000015	          0.12379493	          0.09416504	          0.08773490	          0.08569495	          0.13065952	          0.18062434	          0.20161048	          0.12181481	          0.09575267	          0.13373458	          0.19105336	          0.13856280	          0.14958313	          0.24764390	          0.19549898	          0.11634467	          0.10580743	          0.05000001	          0.05000003	          0.46364410	          0.44267429	          0.47974110	          0.20106036	          0.26081641	          0.28592047	          0.09362667	          0.07959836	          0.06270354	          0.05908998	          0.05000029	          0.05280480	          0.11870302	          0.15577362	          0.19729542	          0.18203333	          0.05000025	          0.05000099	          0.07102766	          0.30274392	          0.23282457	          0.19007775	          0.05000005	          0.05000005	          0.23595025	          0.08753442	          0.18174083	          0.05000006	          0.29831390	          0.30070569	          0.24960979	          0.05000003	          0.05000010	          0.05000001	          0.12806637	          0.05301456	          0.05000458	          0.69103257	          0.22894252	          0.12606622	          0.40613463	          0.54693277	          0.34092525	          0.09425499	          0.07136096	          0.05302329	
